<?xml version="1.0" encoding="UTF-8" standalone="no"?>
<svg
   xmlns:dc="http://purl.org/dc/elements/1.1/"
   xmlns:cc="http://creativecommons.org/ns#"
   xmlns:rdf="http://www.w3.org/1999/02/22-rdf-syntax-ns#"
   xmlns:svg="http://www.w3.org/2000/svg"
   xmlns="http://www.w3.org/2000/svg"
   viewBox="0 0 400 400"
   height="400"
   width="400"
   xml:space="preserve"
   id="svg2"
   version="1.1"><metadata
     id="metadata8"><rdf:RDF><cc:Work
         rdf:about=""><dc:format>image/svg+xml</dc:format><dc:type
           rdf:resource="http://purl.org/dc/dcmitype/StillImage" /></cc:Work></rdf:RDF></metadata><defs
     id="defs6"><clipPath
       id="clipPath18"
       clipPathUnits="userSpaceOnUse"><path
         id="path16"
         d="M 0,300 H 300 V 0 H 0 Z" /></clipPath></defs><g
     transform="matrix(1.3333333,0,0,-1.3333333,0,400)"
     id="g10"><g
       id="g12"><g
         clip-path="url(#clipPath18)"
         id="g14"><g
           transform="translate(223.0605,111.3906)"
           id="g20"><path
             id="path22"
             style="fill:#4d4a4a;fill-opacity:1;fill-rule:nonzero;stroke:none"
             d="m 0,0 c -0.575,-13.975 -2.261,-33.42 -7.018,-46.834 -4.358,-12.289 -17.669,-21.557 -30.965,-21.557 h -29.143 c -11.059,0 -22.506,9.397 -28.978,17.474 l -47.799,67.637 c -1.878,2.657 -2.597,5.885 -2.025,9.089 0.572,3.204 2.364,5.984 5.046,7.827 5.404,3.714 12.678,2.485 16.563,-2.795 l 20.632,-28.049 c 0.769,-1.045 2.121,-1.476 3.353,-1.073 1.231,0.404 2.064,1.553 2.064,2.85 v 94.507 c 0,6.021 4.898,10.92 10.92,10.92 6.021,0 10.919,-4.899 10.919,-10.92 L -76.452,25.8 h 6 l 0.021,24.955 c 0.225,5.578 4.821,10.05 10.453,10.05 5.776,0 10.474,-4.699 10.474,-10.474 l 0.017,-30.295 h 6 v 21.18 c 0,5.461 4.47,9.904 9.966,9.904 5.496,0 9.966,-4.443 9.966,-9.904 l 0.027,-27.996 h 6 v 18.194 c 0,4.833 3.931,8.764 8.764,8.764 C -3.932,40.178 0,36.247 0,31.414 Z M -104.27,99.076 V 81.382 c -4.851,4.495 -7.9,10.91 -7.9,18.03 0,13.562 11.034,24.596 24.596,24.596 13.563,0 24.596,-11.034 24.596,-24.596 0,-6.898 -2.863,-13.131 -7.453,-17.6 v 17.264 c 0,9.329 -7.59,16.92 -16.919,16.92 -9.33,0 -16.92,-7.591 -16.92,-16.92 m -29.501,0.336 c 0,25.473 20.724,46.197 46.197,46.197 25.473,0 46.198,-20.724 46.198,-46.197 0,-13.041 -5.444,-24.823 -14.165,-33.231 -1.413,0.397 -2.897,0.624 -4.437,0.624 -3.964,0 -7.606,-1.409 -10.453,-3.751 v 11.054 c 8.107,5.508 13.453,14.786 13.453,25.304 0,16.87 -13.725,30.596 -30.596,30.596 -16.87,0 -30.596,-13.726 -30.596,-30.596 0,-10.71 5.544,-20.133 13.9,-25.6 V 56.344 c -17.244,6.708 -29.501,23.48 -29.501,43.068 M -8.764,46.178 c -3.353,0 -6.439,-1.136 -8.921,-3.028 -0.962,7.859 -7.69,13.97 -15.836,13.97 -3.912,0 -7.496,-1.414 -10.276,-3.75 -0.756,4.034 -2.986,7.546 -6.109,9.969 8.988,9.38 14.53,22.086 14.53,36.073 0,28.781 -23.416,52.197 -52.198,52.197 -28.781,0 -52.197,-23.416 -52.197,-52.197 0,-22.942 14.887,-42.454 35.501,-49.435 V 13.711 l -15.216,20.685 c -5.816,7.906 -16.708,9.744 -24.795,4.185 -4.015,-2.76 -6.698,-6.921 -7.554,-11.718 -0.856,-4.796 0.221,-9.628 3.032,-13.606 l 47.851,-67.71 c 0.034,-0.048 0.069,-0.095 0.106,-0.141 7.642,-9.57 20.514,-19.797 33.72,-19.797 h 29.143 c 15.969,0 31.37,10.746 36.62,25.551 5.014,14.14 6.77,34.263 7.36,48.654 C 5.999,-0.145 6,-0.104 6,-0.062 v 31.476 c 0,8.141 -6.623,14.764 -14.764,14.764" /></g></g></g></g></svg>